<?xml version="1.0" encoding="utf-8"?>
<!-- Generator: Adobe Illustrator 21.1.0, SVG Export Plug-In . SVG Version: 6.00 Build 0)  -->
<svg version="1.1" id="Capa_1" xmlns="http://www.w3.org/2000/svg" xmlns:xlink="http://www.w3.org/1999/xlink" x="0px" y="0px"
	 viewBox="0 0 45 45" style="enable-background:new 0 0 45 45;" xml:space="preserve">
<style type="text/css">
	.st0{fill:#2D2D2D;}
</style>
<g>
	<path class="st0" d="M7.6,23.7c0,8.1,6.6,14.7,14.7,14.7c8.1,0,14.7-6.6,14.7-14.7c0-8.1-6.6-14.7-14.7-14.7
		C14.2,9.1,7.6,15.6,7.6,23.7z M35.4,23.7c0,7.2-5.9,13.1-13.1,13.1S9.2,30.9,9.2,23.7s5.9-13.1,13.1-13.1S35.4,16.5,35.4,23.7z"/>
	<path class="st0" d="M23.1,17.3c0-0.4-0.4-0.8-0.8-0.8c-0.4,0-0.8,0.4-0.8,0.8v3.3c-1.2,0.4-2.1,1.6-2.1,2.9c0,0.5,0.1,0.9,0.3,1.3
		L15,29.3c-0.3,0.3-0.3,0.8,0,1.1c0.2,0.2,0.4,0.2,0.6,0.2c0.2,0,0.4-0.1,0.6-0.2l4.5-4.4c0.5,0.4,1.1,0.6,1.8,0.6
		c1.7,0,3.1-1.4,3.1-3.1c0-1.5-1-2.7-2.4-3V17.3z M23.9,23.5c0,0.8-0.7,1.5-1.5,1.5c-0.4,0-0.8-0.2-1-0.4c0-0.1-0.1-0.2-0.2-0.2
		c0,0-0.1-0.1-0.1-0.1c-0.1-0.2-0.2-0.5-0.2-0.8c0-0.8,0.7-1.5,1.5-1.5C23.3,22,23.9,22.7,23.9,23.5z"/>
	<path class="st0" d="M21.5,12.7v1.9c0,0.4,0.4,0.8,0.8,0.8c0.4,0,0.8-0.4,0.8-0.8v-1.9c0-0.4-0.4-0.8-0.8-0.8
		C21.8,11.9,21.5,12.2,21.5,12.7z"/>
	<path class="st0" d="M22.3,32.1c-0.4,0-0.8,0.4-0.8,0.8v1.9c0,0.4,0.4,0.8,0.8,0.8c0.4,0,0.8-0.4,0.8-0.8v-1.9
		C23.1,32.5,22.7,32.1,22.3,32.1z"/>
	<path class="st0" d="M31.5,24.5h1.9c0.4,0,0.8-0.4,0.8-0.8c0-0.4-0.4-0.8-0.8-0.8h-1.9c-0.4,0-0.8,0.4-0.8,0.8
		C30.7,24.2,31,24.5,31.5,24.5z"/>
	<path class="st0" d="M13.1,22.9h-1.9c-0.4,0-0.8,0.4-0.8,0.8c0,0.4,0.4,0.8,0.8,0.8h1.9c0.4,0,0.8-0.4,0.8-0.8
		C13.9,23.3,13.5,22.9,13.1,22.9z"/>
	<path class="st0" d="M41.6,22.9c-0.4,0-0.8,0.4-0.8,0.8c0,10.2-8.3,18.6-18.6,18.6C12,42.3,3.7,33.9,3.7,23.7
		C3.7,13.5,12,5.2,22.3,5.2c2,0,4,0.3,5.9,1L26.5,7C26.1,7.2,26,7.6,26.2,8c0.1,0.3,0.4,0.4,0.7,0.4c0.1,0,0.2,0,0.4-0.1l3.2-1.7
		c0.3-0.2,0.5-0.6,0.4-0.9l-1-3.6c-0.1-0.4-0.6-0.7-1-0.5c-0.4,0.1-0.7,0.6-0.5,1l0.6,2.1c-2.1-0.7-4.4-1.1-6.6-1.1
		c-11.1,0-20.1,9-20.1,20.1c0,11.1,9,20.1,20.1,20.1s20.1-9,20.1-20.1C42.4,23.3,42.1,22.9,41.6,22.9z"/>
</g>
</svg>
